# xmcd CD database file
#
# Track frame offsets:
#	150
#	10574
#	39280
#	55108
#	96735
#	134320
#	157248
#
# Disc length: 2402 seconds
#
# Revision: 0
# Processed by: cddbd v1.5.2PL0 Copyright (c) Steve Scherf et al.
# Submitted via: CDex 1.70beta3
#
DISCID=55096007
DTITLE=Youichi Murata - Standards
DYEAR=1900
DGENRE=Jazz
TTITLE0=Rhythm-A-Ning
TTITLE1=Evidence
TTITLE2=Blues Connotation
TTITLE3=All Blues
TTITLE4=La Pasionaria
TTITLE5=Boogie Stop Shuffle
TTITLE6=Pra Dizer Adeus
EXTD=
EXTT0=
EXTT1=
EXTT2=
EXTT3=
EXTT4=
EXTT5=
EXTT6=
PLAYORDER=
